# xmcd
#
# Track frame offsets:
#	150
#	33525
#	61275
#	100050
#	128925
#	158100
#	191175
#
# Disc length: 3334 seconds
#
# Revision: 1
# Processed by: cddbd v1.5.2PL0 Copyright (c) Steve Scherf et al.
# Submitted via: audiograbber 1.83.01
#
DISCID=5d0d0407
DTITLE=Grateful Dead - 93-03-10 Rosemont Horizon, Rosemont IL
DYEAR=1900
DGENRE=
TTITLE0=Feel Like A Stranger
TTITLE1=Stagger Lee
TTITLE2=The Same Thing
TTITLE3=Peggy-O
TTITLE4=Queen Jane Approximately
TTITLE5=Ramble On Rose
TTITLE6=Let It Grow
EXTD=
EXTT0=
EXTT1=
EXTT2=
EXTT3=
EXTT4=
EXTT5=
EXTT6=
PLAYORDER=
